<svg id="Calque_1" data-name="Calque 1" xmlns="http://www.w3.org/2000/svg" viewBox="0 0 595.28 841.89"><defs><style>.cls-1{fill:#fff;}</style></defs><path class="cls-1" d="M100.07,618.46V223H495.56q0,197.7,0,395.5Zm199-394.38c-8.19.65-16.39,1.1-24.56,2-25.18,2.67-48.85,10.78-71,22.54-35.1,18.67-61.24,46.81-80,81.62s-24.21,72.24-21.34,111c1,12.77,4.41,25.51,8,37.89,8.29,28.45,23.68,53.15,43.28,75.06,24.87,27.8,56.49,45.29,91.7,56.35,21.52,6.75,43.78,8.07,66.3,6.58,28.51-1.87,55.25-10.17,80.22-23.32,35.79-18.85,62.25-47.54,81.09-83.12,12.34-23.3,18.85-48.41,20.72-74.75a200.52,200.52,0,0,0-8-72.89c-10.57-34.9-30.69-63.91-57.19-88.52-22.42-20.82-49.43-33.84-78.3-43C333.61,226.33,316.44,224.52,299.11,224.08Z"/><path d="M299.11,224.08c17.33.44,34.5,2.25,51,7.45,28.87,9.12,55.88,22.14,78.3,43C454.88,299.1,475,328.11,485.57,363a200.52,200.52,0,0,1,8,72.89c-1.87,26.34-8.38,51.45-20.72,74.75-18.84,35.58-45.3,64.27-81.09,83.12-25,13.15-51.71,21.45-80.22,23.32-22.52,1.49-44.78.17-66.3-6.58C210,599.45,178.37,582,153.5,554.16c-19.6-21.91-35-46.61-43.28-75.06-3.6-12.38-7.06-25.12-8-37.89-2.87-38.77,2.64-76.35,21.34-111s44.92-62.95,80-81.62c22.13-11.76,45.8-19.87,71-22.54C282.72,225.18,290.92,224.73,299.11,224.08Zm23.05,236.07q0-26.79,0-53.59c0-3.6-.15-7.2.06-10.79.2-3.3,2.77-4.38,5.38-2.41a21.22,21.22,0,0,1,2.22,2.13c6.52,6.56,12.94,13.23,19.58,19.68,6.44,6.27,14.37,6.68,21.17,1.07,4.23-3.5,8.22-7.32,12.12-11.19,8.36-8.27,8.23-16.71-.09-25.18-10.06-10.24-20-20.62-30.1-30.82q-21.31-21.48-42.82-42.77c-6.69-6.59-15.52-6.47-22.44-.07-4.5,4.17-9.05,8.3-13.39,12.63q-30.74,30.6-61.35,61.33c-7.09,7.14-7,16,0,23.25,3.57,3.7,7.24,7.3,10.9,10.9,7.85,7.73,16.57,7.79,24.38.11,6.32-6.22,12.5-12.58,18.92-18.7,1.23-1.18,3.23-1.54,4.88-2.28.66,1.68,1.9,3.36,1.89,5-.08,11.65-.6,23.29-.64,34.94q-.15,44.52.05,89.05c.05,8.66,6.68,14.84,15.4,15,5.78.11,11.57-.14,17.34.06,9.08.31,16.86-7.84,16.66-16.87C321.85,500.51,322.16,480.32,322.16,460.15Z"/><path class="cls-1" d="M322.16,460.15c0,20.17-.31,40.36.13,60.52.2,9-7.58,17.18-16.66,16.87-5.77-.2-11.56.05-17.34-.06-8.72-.18-15.35-6.36-15.4-15q-.24-44.52-.05-89.05c0-11.65.56-23.29.64-34.94,0-1.66-1.23-3.34-1.89-5-1.65.74-3.65,1.1-4.88,2.28-6.42,6.12-12.6,12.48-18.92,18.7-7.81,7.68-16.53,7.62-24.38-.11-3.66-3.6-7.33-7.2-10.9-10.9-7-7.25-7.1-16.11,0-23.25q30.57-30.76,61.35-61.33c4.34-4.33,8.89-8.46,13.39-12.63,6.92-6.4,15.75-6.52,22.44.07q21.56,21.24,42.82,42.77c10.11,10.2,20,20.58,30.1,30.82,8.32,8.47,8.45,16.91.09,25.18-3.9,3.87-7.89,7.69-12.12,11.19-6.8,5.61-14.73,5.2-21.17-1.07-6.64-6.45-13.06-13.12-19.58-19.68a21.22,21.22,0,0,0-2.22-2.13c-2.61-2-5.18-.89-5.38,2.41-.21,3.59-.06,7.19-.06,10.79Q322.15,433.35,322.16,460.15Z"/></svg>